PathFileType	4	(X/Y/Z)	path1_09_0-604.trc
DataRate	CameraRate	NumFrames	NumMarkers	Units	OrigDataRate	OrigDataStartFrame	OrigNumFrames
30	30	6	22	m	30	302	604
Frame#	Time	Hip			RHip			RKnee			RAnkle			RBigToe			RSmallToe			RHeel			LHip			LKnee			LAnkle			LBigToe			LSmallToe			LHeel			Neck			Head			Nose			RShoulder			RElbow			RWrist			LShoulder			LElbow			LWrist		
		X1	Y1	Z1	X2	Y2	Z2	X3	Y3	Z3	X4	Y4	Z4	X5	Y5	Z5	X6	Y6	Z6	X7	Y7	Z7	X8	Y8	Z8	X9	Y9	Z9	X10	Y10	Z10	X11	Y11	Z11	X12	Y12	Z12	X13	Y13	Z13	X14	Y14	Z14	X15	Y15	Z15	X16	Y16	Z16	X17	Y17	Z17	X18	Y18	Z18	X19	Y19	Z19	X20	Y20	Z20	X21	Y21	Z21	X22	Y22	Z22
303	10.1	2.403547877507515	0.8388755539862461	0.7365289743746435	2.4117454125657862	0.8028650969362998	0.6602602558996042	2.3966370317075767	0.46816684755901306	0.6488090572129301	2.450691451261947	0.11080869797548376	0.6530949007937894	2.2721952224507707	0.026935496396569385	0.6382222440088536	2.3138093471520267	0.02423065280915457	0.5805861026071296	2.5079428903070573	0.030116579580011134	0.6692471496892692	2.404969533295562	0.800085418890024	0.8219508361417981	2.4261886906498287	0.4358490641230287	0.8312053425660809	2.4724246115273734	0.09744566739793718	0.8256450118879227	2.300569196647514	0.01645065411485417	0.8198926156150365	2.336280705570781	0.02328155102333454	0.8723059543553531	2.51091107357709	0.030865377883978244	0.8104900207595038	2.3690577391559478	1.4699339284431596	0.7467853955139251	2.32993624123284	1.7078700928964274	0.709311476789589	2.2230613026482873	1.5993367781537728	0.7437139449454189	2.421777652986387	1.3701722084627879	0.5777888467459333	2.473224317246983	1.087297513439531	0.5628502111143747	2.465218567996928	0.8564671443199826	0.5481110392462603	2.403289433099313	1.3542780059438766	0.9017721593674063	2.44195302188199	1.0720616101604108	0.9466079809922411	2.4563911028576304	0.8413518801455349	0.9379661174777709
304	10.133333333333333	2.4036808163709997	0.8389941418327791	0.7368330843096791	2.4128300295636675	0.8040637082707143	0.6612036419536067	2.396559314180779	0.4682992314175321	0.6488094047116594	2.4509370778985735	0.11115150812461742	0.6534409122877723	2.271638085423183	0.027353998653759183	0.6387727354309808	2.3132046498666874	0.02481395698075782	0.5804786875346178	2.5062570020372714	0.03165505740722699	0.6702801003649415	2.4043721631918933	0.801950173365614	0.823271610418458	2.4250614798420336	0.4363417558911067	0.8317561963946026	2.4724051740307877	0.09804418679855408	0.8263269635835523	2.3009439754144405	0.01625197784223774	0.8202782638333965	2.336096346606592	0.023595367579441192	0.8724484546556243	2.5101748927711314	0.03172721588009804	0.8096232064268538	2.368868698476713	1.4687797883839016	0.746611606191906	2.3223998342472214	1.7032162195095526	0.7174200312243868	2.2204921308660857	1.5972135765616073	0.7441484552937887	2.421965473507692	1.370273920582326	0.5782308275280105	2.4733514332312003	1.0872262602532972	0.5628267254242113	2.465199558898804	0.8562610164596939	0.54720203032891	2.402711165324995	1.3547614443327716	0.9018660169251685	2.4419903762533903	1.071999758921196	0.9462683485064044	2.456390218299654	0.8411438943238981	0.9371620174849936
305	10.166666666666666	2.403786565409309	0.8392758196271861	0.7371592722050404	2.413457983349765	0.8055175110694928	0.6620115306322154	2.3964764492710877	0.46834907132599585	0.6488618506795368	2.4512101289113475	0.11145264945945474	0.6538082179314959	2.2712058934725423	0.027742254303617465	0.6393832902158253	2.312654851974255	0.0254241861376582	0.5804057035186079	2.504405448234238	0.03311301700673168	0.6712559066181553	2.404102852912154	0.8039054687092018	0.8243606055138987	2.424077434425167	0.4367862364932144	0.8330160498061148	2.472703300860072	0.09860920726258593	0.8271098524916296	2.30143053485854	0.015992161130217432	0.8209803976785619	2.3355198578235155	0.023963142079034036	0.8725126200238017	2.5098689083178125	0.032458589898858234	0.808791141778006	2.36822581537416	1.4669695802898923	0.7461602009524765	2.313900009963729	1.6976546966093877	0.7263896512219933	2.2193601450791505	1.5960521696757906	0.7440803017058377	2.422022967577342	1.370264837525574	0.5786156018243284	2.473600614571656	1.086954737418612	0.5632497081499496	2.4653181495456358	0.8555968478128648	0.5461088759330315	2.4021084749219934	1.3554766571830732	0.9018485424773736	2.4418972409080095	1.0718575854502292	0.9460613198868677	2.4563664946866313	0.8407133385784831	0.9365443603701129
306	10.2	2.4037775964573127	0.8396239045390966	0.7374267399857516	2.4134581203430296	0.8069359323565964	0.6625841174138827	2.3963517301836914	0.4683050267609023	0.6489980523091003	2.4514853652555586	0.1116863401677878	0.6541427065673346	2.270924025989118	0.028072803540490895	0.640008770525008	2.312158771430403	0.02596438144019954	0.5804535725876298	2.502932182048003	0.03427984542074367	0.6720371314352889	2.4040741542981388	0.8056004732546649	0.8250637098311485	2.4233481639815686	0.4370663735989878	0.8342727947296716	2.4723679742817115	0.09957651496670017	0.8270239592648779	2.302112630700423	0.015638888611954293	0.8220697793560867	2.3344599852012835	0.0244674394679533	0.8725789251575475	2.5096598784870796	0.03298275623880487	0.8082194033446529	2.366999814057206	1.4645994670627906	0.7454037750682938	2.3063496867152953	1.6925224769410405	0.7341931190304742	2.2203148188184967	1.5964144677543333	0.7435147327671143	2.4218848676862454	1.3701599016306498	0.5788822473064712	2.4738331070965986	1.0865254048900193	0.563861797158039	2.4655289768877773	0.8546630239017862	0.5448737107795063	2.4015367921616644	1.3562319721769085	0.9017215372836807	2.4416487397302675	1.0716647860200301	0.9459055376607722	2.4563493069572955	0.8402026343574482	0.9361487870855661
307	10.233333333333333	2.403614811158074	0.8399395496847706	0.7376085546031634	2.412899451360132	0.8080691706466608	0.6629225626657196	2.396108899601523	0.4682190728817238	0.6492396123069166	2.45170836179457	0.11187843048712692	0.6543978172576316	2.2707637909037515	0.028340305548294687	0.6406180251583043	2.3116860083021638	0.026358108966451795	0.5806846832004551	2.5020818980911628	0.03511917414907617	0.6726105834178963	2.404169945272331	0.8068039653860709	0.8254076958204805	2.422943946165867	0.4371641206772145	0.8351912591069687	2.470775886464974	0.10122188446968002	0.825538539583381	2.303002571556503	0.015155705547383597	0.8235417650059643	2.332970796798281	0.0251308352533421	0.8727314817157116	2.509055374266927	0.03336659427946104	0.8079808018827204	2.3653794786335247	1.4619817768496646	0.7444449675556732	2.3011007584459815	1.6888546635540949	0.7393726319292109	2.2226278028893804	1.5977946549488073	0.7427684388706645	2.42155837297153	1.3700318547020194	0.5790359967981582	2.473945405955007	1.0860195153777459	0.5644634260203573	2.465732252648516	0.853709235867405	0.543648490037836	2.4010545356669155	1.356888550427981	0.9015143719045191	2.441264249318207	1.0714987334607895	0.945688369263517	2.4563729904610567	0.83979174823869	0.9359294091004504
308	10.266666666666667	2.4033651512322534	0.84013759396807	0.7377176081909286	2.4120960729913943	0.8087167988788141	0.6630778384581016	2.395707384376993	0.46812438828979275	0.6495612591775793	2.4518472094523043	0.11204966573615172	0.6545310629673514	2.2706515126299855	0.028546269270168914	0.6411818512605526	2.3112099909488935	0.0265530180416031	0.5810868928714418	2.501811951522573	0.03566796489831643	0.672986343636249	2.404292784274245	0.8074010572910875	0.8255068333898518	2.42286180367257	0.4371289214202867	0.8357887378863994	2.468099910466633	0.10336778676837027	0.8229500614655487	2.3039344435271403	0.014635032127642441	0.8251278293476347	2.3314608984645306	0.025824786989852654	0.8730317784712418	2.5078273805146996	0.033707773037000954	0.8080361241248024	2.363901970508184	1.4598030520223446	0.7436156898057434	2.298516671890919	1.6869830653324287	0.7414988343731543	2.2250053765376223	1.599246258194853	0.7422470372400966	2.421119111233679	1.3699827144003813	0.5790916817428724	2.4738832844666794	1.0855988778434893	0.5648933219141133	2.4658349994668556	0.8529545638801334	0.542108553616942	2.4006838611860646	1.357357394539704	0.9012846497009177	2.4408363352346525	1.0714238670214578	0.945356154591466	2.456460433505265	0.8396007010789471	0.9357934498671253
